{
  "accessors": [
    {
      "bufferView": 2,
      "componentType": 5126,
      "count": 304,
      "max": [
        0.8915879726409912,
        2.592848062515259,
        5.604208946228027
      ],
      "min": [
        -0.8929929733276367,
        -2.1088860034942627,
        1.0360360145568848
      ],
      "type": "VEC3"
    },
    {
      "bufferView": 2,
      "byteOffset": 3648,
      "componentType": 5126,
      "count": 304,
      "max": [
        0.996234118938446,
        0.9986062049865723,
        0.969890296459198
      ],
      "min": [
        -0.9961605072021484,
        -0.9981826543807983,
        -0.9996197819709778
      ],
      "type": "VEC3"
    },
    {
      "bufferView": 1,
      "componentType": 5126,
      "count": 304,
      "max": [
        0.875,
        1.0
      ],
      "min": [
        0.125,
        0.25
      ],
      "type": "VEC2"
    },
    {
      "bufferView": 0,
      "componentType": 5125,
      "count": 1524,
      "type": "SCALAR"
    },
    {
      "bufferView": 2,
      "byteOffset": 7296,
      "componentType": 5126,
      "count": 98,
      "max": [
        0.5222390294075012,
        0.21431200206279755,
        6.327176094055176
      ],
      "min": [
        -0.5317909717559814,
        -0.6170269846916199,
        5.443225860595703
      ],
      "type": "VEC3"
    },
    {
      "bufferView": 2,
      "byteOffset": 8472,
      "componentType": 5126,
      "count": 98,
      "max": [
        0.935345470905304,
        0.9999666213989258,
        0.8445565104484558
      ],
      "min": [
        -0.9353614449501038,
        -0.9975375533103943,
        -0.9955630898475647
      ],
      "type": "VEC3"
    },
    {
      "bufferView": 1,
      "byteOffset": 2432,
      "componentType": 5126,
      "count": 98,
      "max": [
        0.9641370177268982,
        0.8264949917793274
      ],
      "min": [
        0.035725999623537064,
        0.07902900129556656
      ],
      "type": "VEC2"
    },
    {
      "bufferView": 0,
      "byteOffset": 6096,
      "componentType": 5125,
      "count": 522,
      "type": "SCALAR"
    },
    {
      "bufferView": 2,
      "byteOffset": 9648,
      "componentType": 5126,
      "count": 220,
      "max": [
        0.7057290077209473,
        0.5369359850883484,
        7.5422210693359375
      ],
      "min": [
        -0.9133639931678772,
        -0.8895760178565979,
        5.482975006103516
      ],
      "type": "VEC3"
    },
    {
      "bufferView": 2,
      "byteOffset": 12288,
      "componentType": 5126,
      "count": 220,
      "max": [
        0.9869341850280762,
        0.9977814555168152,
        0.9896804094314575
      ],
      "min": [
        -0.9707768559455872,
        -0.9998995065689087,
        -0.9902729392051697
      ],
      "type": "VEC3"
    },
    {
      "bufferView": 1,
      "byteOffset": 3216,
      "componentType": 5126,
      "count": 220,
      "max": [
        0.6253870129585266,
        0.7501530051231384
      ],
      "min": [
        0.0,
        0.0
      ],
      "type": "VEC2"
    },
    {
      "bufferView": 0,
      "byteOffset": 8184,
      "componentType": 5125,
      "count": 813,
      "type": "SCALAR"
    },
    {
      "bufferView": 2,
      "byteOffset": 14928,
      "componentType": 5126,
      "count": 26,
      "max": [
        0.74931800365448,
        -0.16621200740337372,
        4.0916972160339355
      ],
      "min": [
        0.6069930195808411,
        -1.5241429805755615,
        3.3553779125213623
      ],
      "type": "VEC3"
    },
    {
      "bufferView": 2,
      "byteOffset": 15240,
      "componentType": 5126,
      "count": 26,
      "max": [
        0.5934711694717407,
        -0.20749564468860626,
        0.9779794812202454
      ],
      "min": [
        -0.5933952331542969,
        -0.9511702060699463,
        -0.32969188690185547
      ],
      "type": "VEC3"
    },
    {
      "bufferView": 1,
      "byteOffset": 4976,
      "componentType": 5126,
      "count": 26,
      "max": [
        0.5992119908332825,
        0.45452800393104553
      ],
      "min": [
        0.48521798849105835,
        0.16930800676345825
      ],
      "type": "VEC2"
    },
    {
      "bufferView": 0,
      "byteOffset": 11436,
      "componentType": 5125,
      "count": 48,
      "type": "SCALAR"
    },
    {
      "bufferView": 2,
      "byteOffset": 15552,
      "componentType": 5126,
      "count": 94,
      "max": [
        0.8484699726104736,
        -2.038630962371826,
        4.547120094299316
      ],
      "min": [
        0.5119929909706116,
        -2.3501999378204346,
        4.235672950744629
      ],
      "type": "VEC3"
    },
    {
      "bufferView": 2,
      "byteOffset": 16680,
      "componentType": 5126,
      "count": 94,
      "max": [
        0.9995561242103577,
        0.9255765080451965,
        0.9251934885978699
      ],
      "min": [
        -0.9995561242103577,
        -0.9255765080451965,
        -0.9251934885978699
      ],
      "type": "VEC3"
    },
    {
      "bufferView": 1,
      "byteOffset": 5184,
      "componentType": 5126,
      "count": 94,
      "max": [
        0.5740600228309631,
        0.5646659731864929
      ],
      "min": [
        0.4785049855709076,
        0.0
      ],
      "type": "VEC2"
    },
    {
      "bufferView": 0,
      "byteOffset": 11628,
      "componentType": 5125,
      "count": 336,
      "type": "SCALAR"
    },
    {
      "bufferView": 2,
      "byteOffset": 17808,
      "componentType": 5126,
      "count": 94,
      "max": [
        0.8521980047225952,
        -1.7311290502548218,
        4.386034965515137
      ],
      "min": [
        0.5157210230827332,
        -2.0426979064941406,
        4.074587821960449
      ],
      "type": "VEC3"
    },
    {
      "bufferView": 2,
      "byteOffset": 18936,
      "componentType": 5126,
      "count": 94,
      "max": [
        0.9995561242103577,
        0.9255765080451965,
        0.9251934885978699
      ],
      "min": [
        -0.9995561242103577,
        -0.9255765080451965,
        -0.9251934885978699
      ],
      "type": "VEC3"
    },
    {
      "bufferView": 1,
      "byteOffset": 5936,
      "componentType": 5126,
      "count": 94,
      "max": [
        0.5702430009841919,
        0.5646659731864929
      ],
      "min": [
        0.4360949993133545,
        0.11389199644327164
      ],
      "type": "VEC2"
    },
    {
      "bufferView": 0,
      "byteOffset": 12972,
      "componentType": 5125,
      "count": 336,
      "type": "SCALAR"
    },
    {
      "bufferView": 2,
      "byteOffset": 20064,
      "componentType": 5126,
      "count": 14,
      "max": [
        0.821370005607605,
        -1.687633991241455,
        7.039388179779053
      ],
      "min": [
        0.5440739989280701,
        -6.4282989501953125,
        3.6216959953308105
      ],
      "type": "VEC3"
    },
    {
      "bufferView": 2,
      "byteOffset": 20232,
      "componentType": 5126,
      "count": 14,
      "max": [
        0.988673210144043,
        0.9963024854660034,
        0.9038941264152527
      ],
      "min": [
        -0.9950573444366455,
        0.04639800637960434,
        -0.5475003123283386
      ],
      "type": "VEC3"
    },
    {
      "bufferView": 1,
      "byteOffset": 6688,
      "componentType": 5126,
      "count": 14,
      "max": [
        0.3938310146331787,
        1.0
      ],
      "min": [
        0.0,
        0.0
      ],
      "type": "VEC2"
    },
    {
      "bufferView": 0,
      "byteOffset": 14316,
      "componentType": 5125,
      "count": 30,
      "type": "SCALAR"
    },
    {
      "bufferView": 2,
      "byteOffset": 20400,
      "componentType": 5126,
      "count": 78,
      "max": [
        0.8325530290603638,
        -1.2160069942474365,
        7.039388179779053
      ],
      "min": [
        0.523829996585846,
        -6.4282989501953125,
        3.52414608001709
      ],
      "type": "VEC3"
    },
    {
      "bufferView": 2,
      "byteOffset": 21336,
      "componentType": 5126,
      "count": 78,
      "max": [
        0.988673210144043,
        0.9963024854660034,
        0.9779794812202454
      ],
      "min": [
        -0.9950573444366455,
        -0.9511702060699463,
        -0.9885465502738953
      ],
      "type": "VEC3"
    },
    {
      "bufferView": 1,
      "byteOffset": 6800,
      "componentType": 5126,
      "count": 78,
      "max": [
        0.5343620181083679,
        1.0
      ],
      "min": [
        0.07445800304412842,
        0.0
      ],
      "type": "VEC2"
    },
    {
      "bufferView": 0,
      "byteOffset": 14436,
      "componentType": 5125,
      "count": 186,
      "type": "SCALAR"
    },
    {
      "bufferView": 2,
      "byteOffset": 22272,
      "componentType": 5126,
      "count": 479,
      "max": [
        1.3758490085601807,
        3.280050039291382,
        5.602367877960205
      ],
      "min": [
        -0.6840919852256775,
        -2.545356035232544,
        -0.030031999573111534
      ],
      "type": "VEC3"
    },
    {
      "bufferView": 2,
      "byteOffset": 28020,
      "componentType": 5126,
      "count": 479,
      "max": [
        0.9861493706703186,
        0.9963310956954956,
        0.9999042749404907
      ],
      "min": [
        -0.9836928248405457,
        -0.9671283960342407,
        -0.9996160864830017
      ],
      "type": "VEC3"
    },
    {
      "bufferView": 1,
      "byteOffset": 7424,
      "componentType": 5126,
      "count": 479,
      "max": [
        0.996882975101471,
        1.0
      ],
      "min": [
        0.0,
        0.0
      ],
      "type": "VEC2"
    },
    {
      "bufferView": 0,
      "byteOffset": 15180,
      "componentType": 5125,
      "count": 1374,
      "type": "SCALAR"
    },
    {
      "bufferView": 2,
      "byteOffset": 33768,
      "componentType": 5126,
      "count": 156,
      "max": [
        0.9840710163116455,
        -0.009301000274717808,
        4.071675777435303
      ],
      "min": [
        0.2113180011510849,
        -1.2597789764404297,
        3.2966790199279785
      ],
      "type": "VEC3"
    },
    {
      "bufferView": 2,
      "byteOffset": 35640,
      "componentType": 5126,
      "count": 156,
      "max": [
        0.9875296950340271,
        0.9585091471672058,
        0.9793087840080261
      ],
      "min": [
        -0.993168294429779,
        -0.9927840232849121,
        -0.9515885710716248
      ],
      "type": "VEC3"
    },
    {
      "bufferView": 1,
      "byteOffset": 11256,
      "componentType": 5126,
      "count": 156,
      "max": [
        0.9841480255126953,
        0.9858360290527344
      ],
      "min": [
        0.0,
        0.0
      ],
      "type": "VEC2"
    },
    {
      "bufferView": 0,
      "byteOffset": 20676,
      "componentType": 5125,
      "count": 396,
      "type": "SCALAR"
    },
    {
      "bufferView": 2,
      "byteOffset": 37512,
      "componentType": 5126,
      "count": 327,
      "max": [
        1.124487042427063,
        0.5911449790000916,
        5.644966125488281
      ],
      "min": [
        -0.20878100395202637,
        -1.2850970029830933,
        3.1067581176757813
      ],
      "type": "VEC3"
    },
    {
      "bufferView": 2,
      "byteOffset": 41436,
      "componentType": 5126,
      "count": 327,
      "max": [
        0.9895995259284973,
        0.9698511958122253,
        0.9850286841392517
      ],
      "min": [
        -0.9752771258354187,
        -0.9880613684654236,
        -0.9984198212623596
      ],
      "type": "VEC3"
    },
    {
      "bufferView": 1,
      "byteOffset": 12504,
      "componentType": 5126,
      "count": 327,
      "max": [
        1.0,
        1.0
      ],
      "min": [
        0.0,
        0.0
      ],
      "type": "VEC2"
    },
    {
      "bufferView": 0,
      "byteOffset": 22260,
      "componentType": 5125,
      "count": 846,
      "type": "SCALAR"
    },
    {
      "bufferView": 2,
      "byteOffset": 45360,
      "componentType": 5126,
      "count": 121,
      "max": [
        0.9387940168380737,
        0.6059219837188721,
        5.514779090881348
      ],
      "min": [
        -0.9114750027656555,
        -1.0191479921340942,
        3.5504770278930664
      ],
      "type": "VEC3"
    },
    {
      "bufferView": 2,
      "byteOffset": 46812,
      "componentType": 5126,
      "count": 121,
      "max": [
        0.9977504014968872,
        0.9933230876922607,
        0.9888361692428589
      ],
      "min": [
        -0.9922258257865906,
        -0.9912089705467224,
        -0.9751678109169006
      ],
      "type": "VEC3"
    },
    {
      "bufferView": 1,
      "byteOffset": 15120,
      "componentType": 5126,
      "count": 121,
      "max": [
        0.961546003818512,
        1.0
      ],
      "min": [
        0.06148900091648102,
        0.0
      ],
      "type": "VEC2"
    },
    {
      "bufferView": 0,
      "byteOffset": 25644,
      "componentType": 5125,
      "count": 486,
      "type": "SCALAR"
    }
  ],
  "asset": {
    "extras": {
      "author": "rogeriofsalves1 (https://sketchfab.com/rogeriofsalves1)",
      "license": "CC-BY-4.0 (http://creativecommons.org/licenses/by/4.0/)",
      "source": "https://sketchfab.com/3d-models/cloud-strife-7a04341c1e3d4345a3079c113f1ebeeb",
      "title": "cloud-strife"
    },
    "generator": "Sketchfab-15.8.0",
    "version": "2.0"
  },
  "bufferViews": [
    {
      "buffer": 0,
      "byteLength": 27588,
      "name": "floatBufferViews",
      "target": 34963
    },
    {
      "buffer": 0,
      "byteLength": 16088,
      "byteOffset": 27588,
      "byteStride": 8,
      "name": "floatBufferViews",
      "target": 34962
    },
    {
      "buffer": 0,
      "byteLength": 48264,
      "byteOffset": 43676,
      "byteStride": 12,
      "name": "floatBufferViews",
      "target": 34962
    }
  ],
  "buffers": [
    {
      "byteLength": 91940,
      "uri": "scene.bin"
    }
  ],
  "extensionsUsed": [
    "KHR_materials_specular"
  ],
  "images": [
    {
      "uri": "textures/FACE_baseColor.png"
    }
  ],
  "materials": [
    {
      "doubleSided": true,
      "name": "BELT",
      "pbrMetallicRoughness": {
        "baseColorFactor": [
          0.10556041286686094,
          0.026979319798187205,
          0.002454910269089686,
          1.0
        ],
        "metallicFactor": 0.0,
        "roughnessFactor": 0.6
      }
    },
    {
      "doubleSided": true,
      "name": "BODY",
      "pbrMetallicRoughness": {
        "baseColorFactor": [
          0.05360209332049622,
          0.023091429155472562,
          0.10286909763063108,
          1.0
        ],
        "metallicFactor": 0.0,
        "roughnessFactor": 0.6
      }
    },
    {
      "doubleSided": true,
      "extensions": {
        "KHR_materials_specular": {
          "specularColorFactor": [
            1.0,
            1.0,
            1.0
          ],
          "specularFactor": 1.0
        }
      },
      "name": "FACE",
      "pbrMetallicRoughness": {
        "baseColorTexture": {
          "index": 0
        },
        "metallicFactor": 0.0
      }
    },
    {
      "doubleSided": true,
      "name": "GLOOVE",
      "pbrMetallicRoughness": {
        "baseColorFactor": [
          0.004220366466787754,
          0.004220366466787754,
          0.004220366466787754,
          1.0
        ],
        "metallicFactor": 0.0,
        "roughnessFactor": 0.6
      }
    },
    {
      "doubleSided": true,
      "name": "HAIR",
      "pbrMetallicRoughness": {
        "baseColorFactor": [
          0.9022800986427694,
          0.5391590129275533,
          0.08657806596811467,
          1.0
        ],
        "metallicFactor": 0.0,
        "roughnessFactor": 0.6
      }
    },
    {
      "doubleSided": true,
      "name": "Materia",
      "pbrMetallicRoughness": {
        "baseColorFactor": [
          0.3052835848314484,
          0.290668684265724,
          0.290668684265724,
          1.0
        ],
        "metallicFactor": 0.0,
        "roughnessFactor": 0.6
      }
    },
    {
      "doubleSided": true,
      "name": "Materia2",
      "pbrMetallicRoughness": {
        "baseColorFactor": [
          0.19802327142925605,
          0.19614087525388088,
          0.19614087525388088,
          1.0
        ],
        "metallicFactor": 0.0,
        "roughnessFactor": 0.6
      }
    },
    {
      "doubleSided": true,
      "name": "Material",
      "pbrMetallicRoughness": {
        "metallicFactor": 0.0,
        "roughnessFactor": 0.6
      }
    },
    {
      "doubleSided": true,
      "name": "SILVER",
      "pbrMetallicRoughness": {
        "baseColorFactor": [
          0.12256760431052603,
          0.12256760431052603,
          0.12256760431052603,
          1.0
        ],
        "metallicFactor": 0.0,
        "roughnessFactor": 0.6
      }
    },
    {
      "doubleSided": true,
      "name": "SILVER.1",
      "pbrMetallicRoughness": {
        "baseColorFactor": [
          0.30026978286695144,
          0.30026978286695144,
          0.30026978286695144,
          1.0
        ],
        "metallicFactor": 0.0,
        "roughnessFactor": 0.6
      }
    },
    {
      "doubleSided": true,
      "name": "SILVER2",
      "pbrMetallicRoughness": {
        "baseColorFactor": [
          0.0758955803843573,
          0.0758955803843573,
          0.0758955803843573,
          1.0
        ],
        "metallicFactor": 0.0,
        "roughnessFactor": 0.6
      }
    },
    {
      "doubleSided": true,
      "name": "SKIN",
      "pbrMetallicRoughness": {
        "baseColorFactor": [
          0.732532985489547,
          0.3699213348520701,
          0.15639711572701714,
          1.0
        ],
        "metallicFactor": 0.0,
        "roughnessFactor": 0.6
      }
    }
  ],
  "meshes": [
    {
      "name": "Object_0",
      "primitives": [
        {
          "attributes": {
            "NORMAL": 1,
            "POSITION": 0,
            "TEXCOORD_0": 2
          },
          "indices": 3,
          "material": 1,
          "mode": 4
        }
      ]
    },
    {
      "name": "Object_1",
      "primitives": [
        {
          "attributes": {
            "NORMAL": 5,
            "POSITION": 4,
            "TEXCOORD_0": 6
          },
          "indices": 7,
          "material": 2,
          "mode": 4
        }
      ]
    },
    {
      "name": "Object_2",
      "primitives": [
        {
          "attributes": {
            "NORMAL": 9,
            "POSITION": 8,
            "TEXCOORD_0": 10
          },
          "indices": 11,
          "material": 4,
          "mode": 4
        }
      ]
    },
    {
      "name": "Object_3",
      "primitives": [
        {
          "attributes": {
            "NORMAL": 13,
            "POSITION": 12,
            "TEXCOORD_0": 14
          },
          "indices": 15,
          "material": 7,
          "mode": 4
        }
      ]
    },
    {
      "name": "Object_4",
      "primitives": [
        {
          "attributes": {
            "NORMAL": 17,
            "POSITION": 16,
            "TEXCOORD_0": 18
          },
          "indices": 19,
          "material": 6,
          "mode": 4
        }
      ]
    },
    {
      "name": "Object_5",
      "primitives": [
        {
          "attributes": {
            "NORMAL": 21,
            "POSITION": 20,
            "TEXCOORD_0": 22
          },
          "indices": 23,
          "material": 5,
          "mode": 4
        }
      ]
    },
    {
      "name": "Object_6",
      "primitives": [
        {
          "attributes": {
            "NORMAL": 25,
            "POSITION": 24,
            "TEXCOORD_0": 26
          },
          "indices": 27,
          "material": 9,
          "mode": 4
        }
      ]
    },
    {
      "name": "Object_7",
      "primitives": [
        {
          "attributes": {
            "NORMAL": 29,
            "POSITION": 28,
            "TEXCOORD_0": 30
          },
          "indices": 31,
          "material": 10,
          "mode": 4
        }
      ]
    },
    {
      "name": "Object_8",
      "primitives": [
        {
          "attributes": {
            "NORMAL": 33,
            "POSITION": 32,
            "TEXCOORD_0": 34
          },
          "indices": 35,
          "material": 0,
          "mode": 4
        }
      ]
    },
    {
      "name": "Object_9",
      "primitives": [
        {
          "attributes": {
            "NORMAL": 37,
            "POSITION": 36,
            "TEXCOORD_0": 38
          },
          "indices": 39,
          "material": 3,
          "mode": 4
        }
      ]
    },
    {
      "name": "Object_10",
      "primitives": [
        {
          "attributes": {
            "NORMAL": 41,
            "POSITION": 40,
            "TEXCOORD_0": 42
          },
          "indices": 43,
          "material": 8,
          "mode": 4
        }
      ]
    },
    {
      "name": "Object_11",
      "primitives": [
        {
          "attributes": {
            "NORMAL": 45,
            "POSITION": 44,
            "TEXCOORD_0": 46
          },
          "indices": 47,
          "material": 11,
          "mode": 4
        }
      ]
    }
  ],
  "nodes": [
    {
      "children": [
        1
      ],
      "matrix": [
        1.0,
        0.0,
        0.0,
        0.0,
        0.0,
        2.220446049250313e-16,
        -1.0,
        0.0,
        0.0,
        1.0,
        2.220446049250313e-16,
        0.0,
        0.0,
        0.0,
        0.0,
        1.0
      ],
      "name": "Sketchfab_model"
    },
    {
      "children": [
        2,
        3,
        4,
        5,
        6,
        7,
        8,
        9,
        10,
        11,
        12,
        13
      ],
      "name": "CLOUD STRIFE_ BASE blend.obj.cleaner.materialmerger.gles"
    },
    {
      "mesh": 0,
      "name": "Object_2"
    },
    {
      "mesh": 1,
      "name": "Object_3"
    },
    {
      "mesh": 2,
      "name": "Object_4"
    },
    {
      "mesh": 3,
      "name": "Object_5"
    },
    {
      "mesh": 4,
      "name": "Object_6"
    },
    {
      "mesh": 5,
      "name": "Object_7"
    },
    {
      "mesh": 6,
      "name": "Object_8"
    },
    {
      "mesh": 7,
      "name": "Object_9"
    },
    {
      "mesh": 8,
      "name": "Object_10"
    },
    {
      "mesh": 9,
      "name": "Object_11"
    },
    {
      "mesh": 10,
      "name": "Object_12"
    },
    {
      "mesh": 11,
      "name": "Object_13"
    }
  ],
  "samplers": [
    {
      "magFilter": 9729,
      "minFilter": 9729,
      "wrapS": 10497,
      "wrapT": 10497
    }
  ],
  "scene": 0,
  "scenes": [
    {
      "name": "Sketchfab_Scene",
      "nodes": [
        0
      ]
    }
  ],
  "textures": [
    {
      "sampler": 0,
      "source": 0
    }
  ]
}
