{
    "asset" : {
        "version" : "2.0",
        "generator" : "Khronos glTF Blender I/O v1.2.20"
    },
    "scene" : 0,
    "scenes" : [
        {
            "name" : "Scene",
            "nodes" : [
                0,
                1,
                2,
                3,
                4,
                5
            ]
        }
    ],
    "nodes" : [
        {
            "name" : "Sun",
            "translation" : [
                0,
                -8.728894233703613,
                10.784941673278809
            ],
            "rotation" : [
                0.2875720262527466,
                0.22435826063156128,
                -0.3769703805446625,
                0.851386547088623
            ]
        },
        {
            "name" : "Text",
            "translation" : [
                0,
                -0.25,
                0
            ],
            "mesh" : 0
        },
        {
            "name" : "Floor",
            "translation" : [
                -10,
                -0.25,
                0
            ],
            "mesh" : 1,
            "rotation" : [
                -0.7071068286895752,
                0,
                0,
                0.7071068286895752
            ]
        },
        {
            "name" : "Wall",
            "translation" : [
                -7.999999523162842,
                0.75,
                0.9999999403953552
            ],
            "mesh" : 2
        },
        {
            "name" : "Cloud",
            "translation" : [
                1.8113317489624023,
                -0.25,
                0
            ],
            "mesh" : 3,
            "rotation" : [
                -0.7071068286895752,
                0,
                0,
                0.7071068286895752
            ]
        },
        {
            "name" : "Cat",
            "translation" : [
                -2,
                -0.25,
                0
            ],
            "mesh" : 4,
            "rotation" : [
                -0.7071068286895752,
                0,
                0,
                0.7071068286895752
            ]
        }
    ],
    "materials" : [
        {
            "name" : "Arc-Base",
            "pbrMetallicRoughness" : {
                "metallicFactor" : 0,
                "baseColorFactor" : [
                    0,
                    0,
                    0,
                    1
                ],
                "roughnessFactor" : 1
            }
        },
        {
            "name" : "Arc-Emit",
            "pbrMetallicRoughness" : {},
            "emissiveFactor" : [
                1,
                1,
                1
            ]
        },
        {
            "name" : "Floor",
            "normalTexture" : {
                "texCoord" : 0,
                "index" : 0
            },
            "pbrMetallicRoughness" : {
                "baseColorTexture" : {
                    "index" : 1,
                    "texCoord" : 0
                },
                "metallicRoughnessTexture" : {
                    "index" : 2,
                    "texCoord" : 0
                },
                "metallicFactor" : 0
            }
        },
        {
            "name" : "Wall",
            "normalTexture" : {
                "texCoord" : 0,
                "index" : 3
            },
            "pbrMetallicRoughness" : {
                "baseColorTexture" : {
                    "index" : 4,
                    "texCoord" : 0
                },
                "metallicFactor" : 0,
                "roughnessFactor" : 1
            }
        },
        {
            "name" : "Cloud-Base",
            "pbrMetallicRoughness" : {
                "metallicFactor" : 0,
                "baseColorFactor" : [
                    0.013354746624827385,
                    0.013354746624827385,
                    0.013354746624827385,
                    1
                ],
                "roughnessFactor" : 0.25
            }
        },
        {
            "name" : "Cloud",
            "pbrMetallicRoughness" : {
                "baseColorTexture" : {
                    "index" : 5,
                    "texCoord" : 0
                },
                "metallicFactor" : 0,
                "roughnessFactor" : 0.5
            }
        },
        {
            "name" : "Cloud-Sword",
            "pbrMetallicRoughness" : {
                "baseColorTexture" : {
                    "index" : 6,
                    "texCoord" : 0
                },
                "metallicFactor" : 0,
                "roughnessFactor" : 0.5
            }
        },
        {
            "name" : "Cat-Base",
            "pbrMetallicRoughness" : {
                "metallicFactor" : 0,
                "baseColorFactor" : [
                    0.013354746624827385,
                    0.013354746624827385,
                    0.013354746624827385,
                    1
                ],
                "roughnessFactor" : 0.25
            }
        },
        {
            "name" : "Cat",
            "pbrMetallicRoughness" : {
                "metallicFactor" : 0.5,
                "baseColorFactor" : [
                    0.27690255641937256,
                    0.02389434538781643,
                    0,
                    1
                ],
                "roughnessFactor" : 0.5
            }
        }
    ],
    "meshes" : [
        {
            "name" : "CUText",
            "primitives" : [
                {
                    "indices" : 3,
                    "material" : 0,
                    "attributes" : {
                        "POSITION" : 0,
                        "TEXCOORD_0" : 1,
                        "NORMAL" : 2
                    }
                },
                {
                    "indices" : 7,
                    "material" : 1,
                    "attributes" : {
                        "POSITION" : 4,
                        "TEXCOORD_0" : 5,
                        "NORMAL" : 6
                    }
                }
            ]
        },
        {
            "name" : "Plane",
            "primitives" : [
                {
                    "indices" : 11,
                    "material" : 2,
                    "attributes" : {
                        "POSITION" : 8,
                        "TEXCOORD_0" : 9,
                        "NORMAL" : 10
                    }
                }
            ]
        },
        {
            "name" : "Plane.001",
            "primitives" : [
                {
                    "indices" : 15,
                    "material" : 3,
                    "attributes" : {
                        "POSITION" : 12,
                        "TEXCOORD_0" : 13,
                        "NORMAL" : 14
                    }
                }
            ]
        },
        {
            "name" : "Cloud",
            "primitives" : [
                {
                    "indices" : 19,
                    "material" : 4,
                    "attributes" : {
                        "POSITION" : 16,
                        "TEXCOORD_0" : 17,
                        "NORMAL" : 18
                    }
                },
                {
                    "indices" : 23,
                    "material" : 5,
                    "attributes" : {
                        "POSITION" : 20,
                        "TEXCOORD_0" : 21,
                        "NORMAL" : 22
                    }
                },
                {
                    "indices" : 27,
                    "material" : 6,
                    "attributes" : {
                        "POSITION" : 24,
                        "TEXCOORD_0" : 25,
                        "NORMAL" : 26
                    }
                }
            ]
        },
        {
            "name" : "Cylinder_0.139",
            "primitives" : [
                {
                    "indices" : 19,
                    "material" : 7,
                    "attributes" : {
                        "POSITION" : 28,
                        "TEXCOORD_0" : 29,
                        "NORMAL" : 30
                    }
                },
                {
                    "indices" : 34,
                    "material" : 8,
                    "attributes" : {
                        "POSITION" : 31,
                        "TEXCOORD_0" : 32,
                        "NORMAL" : 33
                    }
                }
            ]
        }
    ],
    "textures" : [
        {
            "source" : 0
        },
        {
            "source" : 1
        },
        {
            "source" : 2
        },
        {
            "source" : 3
        },
        {
            "source" : 4
        },
        {
            "source" : 5
        },
        {
            "source" : 6
        }
    ],
    "images" : [
        {
            "name" : "TCom_Wood_OakVeneer2_2K_normal",
            "uri" : "Tex/TCom_Wood_OakVeneer2_2K_normal.png",
            "mimeType" : "image/png"
        },
        {
            "name" : "TCom_Wood_OakVeneer2_2K_albedo_png",
            "uri" : "Tex/TCom_Wood_OakVeneer2_2K_albedo_png.png",
            "mimeType" : "image/png"
        },
        {
            "name" : "TCom_Wood_OakVeneer2_2K_roughness",
            "uri" : "Tex/TCom_Wood_OakVeneer2_2K_roughness.png",
            "mimeType" : "image/png"
        },
        {
            "name" : "Plaster_001_NORM",
            "uri" : "Tex/Plaster_001_NORM.jpg",
            "mimeType" : "image/jpeg"
        },
        {
            "name" : "Plaster_001_COLOR",
            "uri" : "Tex/Plaster_001_COLOR.jpg",
            "mimeType" : "image/jpeg"
        },
        {
            "name" : "cloud_png",
            "uri" : "Tex/cloud_png.png",
            "mimeType" : "image/png"
        },
        {
            "name" : "cloud-sword-color_png",
            "uri" : "Tex/cloud-sword-color_png.png",
            "mimeType" : "image/png"
        }
    ],
    "accessors" : [
        {
            "type" : "VEC3",
            "count" : 3646,
            "componentType" : 5126,
            "bufferView" : 0,
            "min" : [
                -0.8587560653686523,
                -0.09999997913837433,
                0.008050531148910522
            ],
            "max" : [
                0.8587560653686523,
                0.10000000894069672,
                0.7360285520553589
            ]
        },
        {
            "componentType" : 5126,
            "bufferView" : 1,
            "type" : "VEC2",
            "count" : 3646
        },
        {
            "componentType" : 5126,
            "bufferView" : 2,
            "type" : "VEC3",
            "count" : 3646
        },
        {
            "componentType" : 5123,
            "bufferView" : 3,
            "type" : "SCALAR",
            "count" : 6321
        },
        {
            "type" : "VEC3",
            "count" : 2087,
            "componentType" : 5126,
            "bufferView" : 4,
            "min" : [
                -0.8587560653686523,
                -0.09999997913837433,
                0.008050531148910522
            ],
            "max" : [
                0.8587560653686523,
                -0.09999997913837433,
                0.7360285520553589
            ]
        },
        {
            "componentType" : 5126,
            "bufferView" : 5,
            "type" : "VEC2",
            "count" : 2087
        },
        {
            "componentType" : 5126,
            "bufferView" : 6,
            "type" : "VEC3",
            "count" : 2087
        },
        {
            "componentType" : 5123,
            "bufferView" : 7,
            "type" : "SCALAR",
            "count" : 2103
        },
        {
            "type" : "VEC3",
            "count" : 48,
            "componentType" : 5126,
            "bufferView" : 8,
            "min" : [
                -2,
                0,
                -3
            ],
            "max" : [
                22,
                0,
                1
            ]
        },
        {
            "componentType" : 5126,
            "bufferView" : 9,
            "type" : "VEC2",
            "count" : 48
        },
        {
            "componentType" : 5126,
            "bufferView" : 10,
            "type" : "VEC3",
            "count" : 48
        },
        {
            "componentType" : 5123,
            "bufferView" : 11,
            "type" : "SCALAR",
            "count" : 72
        },
        {
            "type" : "VEC3",
            "count" : 24,
            "componentType" : 5126,
            "bufferView" : 12,
            "min" : [
                -4,
                0,
                -1
            ],
            "max" : [
                20,
                0,
                3
            ]
        },
        {
            "componentType" : 5126,
            "bufferView" : 13,
            "type" : "VEC2",
            "count" : 24
        },
        {
            "componentType" : 5126,
            "bufferView" : 14,
            "type" : "VEC3",
            "count" : 24
        },
        {
            "componentType" : 5123,
            "bufferView" : 15,
            "type" : "SCALAR",
            "count" : 36
        },
        {
            "type" : "VEC3",
            "count" : 252,
            "componentType" : 5126,
            "bufferView" : 16,
            "min" : [
                -0.5734106302261353,
                -0.05268288031220436,
                -0.5734108090400696
            ],
            "max" : [
                0.5734108686447144,
                -4.6750815840823634e-07,
                0.5734108090400696
            ]
        },
        {
            "componentType" : 5126,
            "bufferView" : 17,
            "type" : "VEC2",
            "count" : 252
        },
        {
            "componentType" : 5126,
            "bufferView" : 18,
            "type" : "VEC3",
            "count" : 252
        },
        {
            "componentType" : 5123,
            "bufferView" : 19,
            "type" : "SCALAR",
            "count" : 372
        },
        {
            "type" : "VEC3",
            "count" : 1758,
            "componentType" : 5126,
            "bufferView" : 20,
            "min" : [
                -0.40816637873649597,
                -1.4444923400878906,
                -0.20895785093307495
            ],
            "max" : [
                0.46063128113746643,
                -0.033672332763671875,
                0.2502322793006897
            ]
        },
        {
            "componentType" : 5126,
            "bufferView" : 21,
            "type" : "VEC2",
            "count" : 1758
        },
        {
            "componentType" : 5126,
            "bufferView" : 22,
            "type" : "VEC3",
            "count" : 1758
        },
        {
            "componentType" : 5123,
            "bufferView" : 23,
            "type" : "SCALAR",
            "count" : 5442
        },
        {
            "type" : "VEC3",
            "count" : 120,
            "componentType" : 5126,
            "bufferView" : 24,
            "min" : [
                -0.7747461199760437,
                -1.905132532119751,
                -0.34102046489715576
            ],
            "max" : [
                -0.19903166592121124,
                -0.6356123089790344,
                -0.07968094944953918
            ]
        },
        {
            "componentType" : 5126,
            "bufferView" : 25,
            "type" : "VEC2",
            "count" : 120
        },
        {
            "componentType" : 5126,
            "bufferView" : 26,
            "type" : "VEC3",
            "count" : 120
        },
        {
            "componentType" : 5123,
            "bufferView" : 27,
            "type" : "SCALAR",
            "count" : 192
        },
        {
            "type" : "VEC3",
            "count" : 252,
            "componentType" : 5126,
            "bufferView" : 28,
            "min" : [
                -0.5734107494354248,
                -0.05268240347504616,
                -0.5734108090400696
            ],
            "max" : [
                0.5734107494354248,
                9.329006900316017e-09,
                0.5734108090400696
            ]
        },
        {
            "componentType" : 5126,
            "bufferView" : 29,
            "type" : "VEC2",
            "count" : 252
        },
        {
            "componentType" : 5126,
            "bufferView" : 30,
            "type" : "VEC3",
            "count" : 252
        },
        {
            "type" : "VEC3",
            "count" : 410952,
            "componentType" : 5126,
            "bufferView" : 31,
            "min" : [
                -0.45526543259620667,
                -1.6825991868972778,
                -0.4585367441177368
            ],
            "max" : [
                0.5689315795898438,
                -0.03644575551152229,
                0.4806176722049713
            ]
        },
        {
            "componentType" : 5126,
            "bufferView" : 32,
            "type" : "VEC2",
            "count" : 410952
        },
        {
            "componentType" : 5126,
            "bufferView" : 33,
            "type" : "VEC3",
            "count" : 410952
        },
        {
            "componentType" : 5125,
            "bufferView" : 34,
            "type" : "SCALAR",
            "count" : 410952
        }
    ],
    "bufferViews" : [
        {
            "byteLength" : 43752,
            "byteOffset" : 0,
            "buffer" : 0
        },
        {
            "byteLength" : 29168,
            "byteOffset" : 43752,
            "buffer" : 0
        },
        {
            "byteLength" : 43752,
            "byteOffset" : 72920,
            "buffer" : 0
        },
        {
            "byteLength" : 12642,
            "byteOffset" : 116672,
            "buffer" : 0
        },
        {
            "byteLength" : 25044,
            "byteOffset" : 129316,
            "buffer" : 0
        },
        {
            "byteLength" : 16696,
            "byteOffset" : 154360,
            "buffer" : 0
        },
        {
            "byteLength" : 25044,
            "byteOffset" : 171056,
            "buffer" : 0
        },
        {
            "byteLength" : 4206,
            "byteOffset" : 196100,
            "buffer" : 0
        },
        {
            "byteLength" : 576,
            "byteOffset" : 200308,
            "buffer" : 0
        },
        {
            "byteLength" : 384,
            "byteOffset" : 200884,
            "buffer" : 0
        },
        {
            "byteLength" : 576,
            "byteOffset" : 201268,
            "buffer" : 0
        },
        {
            "byteLength" : 144,
            "byteOffset" : 201844,
            "buffer" : 0
        },
        {
            "byteLength" : 288,
            "byteOffset" : 201988,
            "buffer" : 0
        },
        {
            "byteLength" : 192,
            "byteOffset" : 202276,
            "buffer" : 0
        },
        {
            "byteLength" : 288,
            "byteOffset" : 202468,
            "buffer" : 0
        },
        {
            "byteLength" : 72,
            "byteOffset" : 202756,
            "buffer" : 0
        },
        {
            "byteLength" : 3024,
            "byteOffset" : 202828,
            "buffer" : 0
        },
        {
            "byteLength" : 2016,
            "byteOffset" : 205852,
            "buffer" : 0
        },
        {
            "byteLength" : 3024,
            "byteOffset" : 207868,
            "buffer" : 0
        },
        {
            "byteLength" : 744,
            "byteOffset" : 210892,
            "buffer" : 0
        },
        {
            "byteLength" : 21096,
            "byteOffset" : 211636,
            "buffer" : 0
        },
        {
            "byteLength" : 14064,
            "byteOffset" : 232732,
            "buffer" : 0
        },
        {
            "byteLength" : 21096,
            "byteOffset" : 246796,
            "buffer" : 0
        },
        {
            "byteLength" : 10884,
            "byteOffset" : 267892,
            "buffer" : 0
        },
        {
            "byteLength" : 1440,
            "byteOffset" : 278776,
            "buffer" : 0
        },
        {
            "byteLength" : 960,
            "byteOffset" : 280216,
            "buffer" : 0
        },
        {
            "byteLength" : 1440,
            "byteOffset" : 281176,
            "buffer" : 0
        },
        {
            "byteLength" : 384,
            "byteOffset" : 282616,
            "buffer" : 0
        },
        {
            "byteLength" : 3024,
            "byteOffset" : 283000,
            "buffer" : 0
        },
        {
            "byteLength" : 2016,
            "byteOffset" : 286024,
            "buffer" : 0
        },
        {
            "byteLength" : 3024,
            "byteOffset" : 288040,
            "buffer" : 0
        },
        {
            "byteLength" : 4931424,
            "byteOffset" : 291064,
            "buffer" : 0
        },
        {
            "byteLength" : 3287616,
            "byteOffset" : 5222488,
            "buffer" : 0
        },
        {
            "byteLength" : 4931424,
            "byteOffset" : 8510104,
            "buffer" : 0
        },
        {
            "byteLength" : 1643808,
            "byteOffset" : 13441528,
            "buffer" : 0
        }
    ],
    "buffers" : [
        {
            "byteLength" : 15085336,
            "uri" : "arc-scene2.bin"
        }
    ]
}
